#!OML:ASF H:\Dans Jumps\Project 1\Capture day 1\Session 1\subject.ASF
:FULLY-SPECIFIED
:DEGREES
202
root 0.425656 16.4473 -14.2333 26.211 2.65267 -1.84494
lowerback 16.1362 -0.223015 -0.162178
upperback 3.34502 -0.113753 3.17304
thorax -5.4701 -0.0347831 3.48454
lowerneck -19.5261 -0.350256 -2.30178
upperneck 8.67354 0.192206 -0.506012
head 5.77258 -0.0310226 0.22606
rclavicle 1.39149e-015 -4.77083e-015
rhumerus -25.3013 -17.6902 -75.5215
rradius 21.9512
rwrist 34.375
rhand -17.3086 -26.4054
rfingers 7.12502
rthumb 8.93754 -56.1961
lclavicle 1.39149e-015 -4.77083e-015
lhumerus -22.8995 16.3249 79.3117
lradius 12.1102
lwrist -7.54377
lhand -23.5462 -4.74559
lfingers 7.12502
lthumb 2.91565 25.2142
rfemur -52.1743 -0.607437 22.9395
rtibia 52.6018
rfoot -31.9372 -16.1582
rtoes 0.214853
lfemur -53.1059 0.40091 -18.6458
ltibia 51.9536
lfoot -26.4718 21.5946
ltoes -12.2204
203
root 0.416063 16.4072 -14.1892 26.6154 2.7653 -1.84764
lowerback 16.3376 -0.185686 -0.159839
upperback 3.12959 -0.0538264 3.19604
thorax -5.81278 5.70435e-005 3.50231
lowerneck -19.7567 -0.400848 -2.31475
upperneck 8.58532 0.131372 -0.490692
head 5.78119 -0.059393 0.226466
rclavicle 3.57812e-015 2.94201e-014
rhumerus -24.8963 -18.1109 -75.492
rradius 21.6615
rwrist 34.7899
rhand -17.4987 -26.438
rfingers 7.12502
rthumb 8.75408 -56.2365
lclavicle 3.57812e-015 2.94201e-014
lhumerus -22.3979 18.7453 78.7669
lradius 11.4909
lwrist -10.3996
lhand -23.689 -5.01185
lfingers 7.12502
lthumb 2.77768 24.9498
rfemur -52.7928 -0.485412 22.9688
rtibia 53.271
rfoot -32.0426 -16.456
rtoes 0.454184
lfemur -53.7453 0.137185 -18.4737
ltibia 52.6484
lfoot -26.6094 21.8869
ltoes -11.9737
204
root 0.406002 16.3643 -14.1434 27.0191 2.86917 -1.85506
lowerback 16.5459 -0.14201 -0.170907
upperback 2.89862 0.0130334 3.22281
thorax -6.17704 0.0389418 3.53047
lowerneck -19.9971 -0.449193 -2.31582
upperneck 8.5212 0.0731872 -0.490763
head 5.79901 -0.0875839 0.22023
rclavicle 3.37934e-015 3.97569e-016
rhumerus -24.468 -18.5673 -75.4645
rradius 21.3968
rwrist 35.2209
rhand -17.6934 -26.4877
rfingers 7.12502
rthumb 8.56622 -56.2939
lclavicle 3.37934e-015 3.97569e-016
lhumerus -21.9324 21.5447 78.1498
lradius 10.8741
lwrist -13.6661
lhand -23.8992 -5.24983
lfingers 7.12502
lthumb 2.57471 24.7144
rfemur -53.4189 -0.377758 23.0095
rtibia 53.9695
rfoot -32.1363 -16.7872
rtoes 0.67075
lfemur -54.3944 -0.0900217 -18.3069
ltibia 53.3725
lfoot -26.7396 22.1547
ltoes -11.7263
205
root 0.395542 16.3188 -14.0959 27.4187 2.96263 -1.87002
lowerback 16.7615 -0.092797 -0.196618
upperback 2.65298 0.0854834 3.2538
thorax -6.56245 0.0813662 3.57047
lowerneck -20.2555 -0.492448 -2.31088
upperneck 8.48729 0.0219843 -0.497018
head 5.82918 -0.113013 0.211668
rclavicle 0 -2.38542e-014
rhumerus -24.0081 -19.0198 -75.4518
rradius 21.1643
rwrist 35.6618
rhand -17.8995 -26.5524
rfingers 7.12502
rthumb 8.3673 -56.3666
lclavicle 0 -2.38542e-014
lhumerus -21.5168 24.6371 77.4884
lradius 10.2916
lwrist -17.1324
lhand -24.1415 -5.43378
lfingers 7.12502
lthumb 2.34071 24.5331
rfemur -54.0472 -0.283408 23.0652
rtibia 54.6964
rfoot -32.2165 -17.1413
rtoes 0.849249
lfemur -55.0493 -0.271564 -18.148
ltibia 54.123
lfoot -26.8532 22.3658
ltoes -11.4901
206
root 0.384715 16.2702 -14.0462 27.8125 3.04423 -1.89124
lowerback 16.979 -0.0396113 -0.238661
upperback 2.39574 0.160672 3.28613
thorax -6.96298 0.126021 3.62066
lowerneck -20.538 -0.53109 -2.30398
upperneck 8.48209 -0.0234994 -0.496081
head 5.87219 -0.135306 0.205574
rclavicle -1.19271e-015 8.34896e-015
rhumerus -23.4976 -19.4657 -75.4629
rradius 20.9522
rwrist 36.1481
rhand -18.0961 -26.6266
rfingers 7.12502
rthumb 8.17763 -56.4483
lclavicle -1.19271e-015 8.34896e-015
lhumerus -20.7057 25.6314 77.7911
lradius 9.75576
lwrist -18.1638
lhand -24.6832 -5.31568
lfingers 7.12502
lthumb 1.81755 24.6563
rfemur -54.6771 -0.202465 23.136
rtibia 55.4515
rfoot -32.2703 -17.4996
rtoes 1.00384
lfemur -55.7085 -0.408314 -17.9987
ltibia 54.8981
lfoot -26.934 22.4991
ltoes -11.2979
207
root 0.373496 16.2185 -13.994 28.2004 3.10915 -1.9143
lowerback 17.1871 0.0163648 -0.302607
upperback 2.13282 0.235262 3.3167
thorax -7.36598 0.171378 3.68136
lowerneck -20.832 -0.565709 -2.30517
upperneck 8.48177 -0.0636948 -0.475705
head 5.91841 -0.153698 0.207482
rclavicle 7.15625e-015 1.31198e-014
rhumerus -22.916 -19.8762 -75.513
rradius 20.7609
rwrist 36.6818
rhand -18.2782 -26.6836
rfingers 7.12502
rthumb 8.00179 -56.5121
lclavicle 7.15625e-015 1.31198e-014
lhumerus -19.859 26.6294 78.1178
lradius 9.29321
lwrist -18.9297
lhand -25.1809 -5.19261
lfingers 7.12502
lthumb 1.33681 24.7829
rfemur -55.3095 -0.136825 23.2188
rtibia 56.2346
rfoot -32.2894 -17.833
rtoes 1.11709
lfemur -56.3704 -0.497392 -17.8661
ltibia 55.6967
lfoot -26.9722 22.5412
ltoes -11.1688
208
root 0.36177 16.1633 -13.9391 28.5813 3.15222 -1.94096
lowerback 17.3813 0.0768923 -0.388654
upperback 1.86695 0.310964 3.34351
thorax -7.76636 0.218343 3.75003
lowerneck -21.1417 -0.598662 -2.31792
upperneck 8.48087 -0.101349 -0.431285
head 5.96676 -0.16916 0.219165
rclavicle 1.98785e-015 -1.11319e-014
rhumerus -22.253 -20.266 -75.6038
rradius 20.5839
rwrist 37.2911
rhand -18.4474 -26.7064
rfingers 7.12502
rthumb 7.83857 -56.5411
lclavicle 1.98785e-015 -1.11319e-014
lhumerus -18.9769 27.6373 78.4577
lradius 8.92456
lwrist -19.4616
lhand -25.5805 -5.11492
lfingers 7.12502
lthumb 0.950927 24.8627
rfemur -55.9397 -0.0798987 23.3117
rtibia 57.0442
rfoot -32.2797 -18.1044
rtoes 1.23405
lfemur -57.0327 -0.529658 -17.7521
ltibia 56.52
lfoot -26.9623 22.4963
ltoes -11.1038
209
root 0.349437 16.1045 -13.8813 28.9586 3.17308 -1.97192
lowerback 17.5463 0.141741 -0.490871
upperback 1.6045 0.387707 3.3632
thorax -8.14887 0.266521 3.81925
lowerneck -21.4543 -0.630955 -2.34351
upperneck 8.45193 -0.138329 -0.360798
head 6.00637 -0.182128 0.241351
rclavicle 3.18055e-015 3.97569e-016
rhumerus -21.4932 -20.6278 -75.7477
rradius 20.4289
rwrist 37.9474
rhand -18.5992 -26.6936
rfingers 7.12502
rthumb 7.69198 -56.5337
lclavicle 3.18055e-015 3.97569e-016
lhumerus -18.0458 28.6464 78.8113
lradius 8.66659
lwrist -19.8246
lhand -25.8613 -5.13462
lfingers 7.12502
lthumb 0.679741 24.844
rfemur -56.571 -0.0326522 23.4154
rtibia 57.8787
rfoot -32.2406 -18.3125
rtoes 1.34206
lfemur -57.6987 -0.498023 -17.6601
ltibia 57.3703
lfoot -26.8831 22.4015
ltoes -11.1516
210
root 0.336446 16.0423 -13.8204 29.3282 3.17287 -2.00969
lowerback 17.6733 0.211501 -0.601915
upperback 1.3513 0.467251 3.37502
thorax -8.50207 0.316303 3.88328
lowerneck -21.7714 -0.665141 -2.38031
upperneck 8.39295 -0.177599 -0.269572
head 6.03685 -0.194393 0.27176
rclavicle 6.75868e-015 1.90833e-014
rhumerus -20.6268 -20.9851 -75.9444
rradius 20.2919
rwrist 38.635
rhand -18.7382 -26.6538
rfingers 7.12502
rthumb 7.55789 -56.4987
lclavicle 6.75868e-015 1.90833e-014
lhumerus -17.059 29.6496 79.1824
lradius 8.53778
lwrist -20.1284
lhand -25.9854 -5.20066
lfingers 7.12502
lthumb 0.559804 24.7784
rfemur -57.1951 0.00331704 23.5321
rtibia 58.7348
rfoot -32.1852 -18.4725
rtoes 1.44216
lfemur -58.3608 -0.39554 -17.5903
ltibia 58.251
lfoot -26.7514 22.276
ltoes -11.291
